<svg width="50" height="50" viewBox="0 0 50 50" fill="none" xmlns="http://www.w3.org/2000/svg">
<path d="M45.1383 24.1264C45.1383 24.1264 46.6278 21.9553 44.4554 20.4671C42.2856 18.979 40.7975 21.15 40.7975 21.15L33.8883 31.2264C33.6514 30.829 33.3896 30.4369 33.1001 30.05L42.6896 16.0645C42.6896 16.0645 44.1777 13.8948 42.0067 12.4066C39.837 10.9171 38.3488 13.0882 38.3488 13.0882L29.3278 26.2421C28.9922 25.9671 28.6501 25.6935 28.2949 25.4237L38.7514 10.1737C38.7514 10.1737 40.2396 8.00398 38.0699 6.51583C35.9001 5.02635 34.412 7.1974 34.412 7.1974L23.9541 22.4461C23.5699 22.2092 23.1896 22.0053 22.8093 21.7908L32.5817 7.53819C32.5817 7.53819 34.0699 5.36845 31.8988 3.88029C29.7291 2.39082 28.2409 4.56188 28.2409 4.56188L17.9067 19.6316L17.0791 20.8395L16.3356 21.925C22.8462 26.3895 23.4659 34.7921 19.7462 40.2171C19.0014 41.3027 17.9172 40.5592 17.9172 40.5592C22.3817 34.0474 21.0172 26.7303 14.5054 22.2658L16.4291 12.6579C16.4291 12.6579 17.1462 10.125 14.6146 9.40793C12.083 8.69083 11.3659 11.2224 11.3659 11.2224L9.1488 17.8066C8.26986 20.4171 7.33433 23.0185 6.09617 25.4777C2.60012 32.425 4.68828 41.0606 11.2817 45.5816C18.4725 50.5119 28.3014 48.6803 33.233 41.4895C33.4935 41.1079 33.712 40.7356 33.9199 40.3632L33.9777 40.404L45.1383 24.1264Z" fill="white"/>
<path d="M4.00267 10.5264H1.37109C1.37388 8.0991 2.33934 5.77204 4.05569 4.0557C5.77203 2.33935 8.09909 1.37389 10.5264 1.3711V4.00268C8.79681 4.00477 7.1387 4.69276 5.91572 5.91573C4.69275 7.13871 4.00476 8.79682 4.00267 10.5264" fill="white"/>
<path d="M6.57884 17.1052H3.94727C3.94727 9.84996 9.8499 3.94733 17.1052 3.94733V6.57891C11.3012 6.57891 6.57884 11.3013 6.57884 17.1052Z" fill="white"/>
<path d="M39.4736 48.6842V46.0526C43.421 46.0526 46.0526 43.421 46.0526 39.4737H48.6842C48.6842 44.7368 44.7368 48.6842 39.4736 48.6842Z" fill="white"/>
<path d="M32.895 46.1079V43.4763C38.1582 43.4763 43.4766 38.1579 43.4766 32.8948H46.1082C46.1082 40.7895 40.7898 46.1079 32.895 46.1079Z" fill="white"/>
</svg>
