<svg width="308" height="333" viewBox="0 0 308 333" fill="none" xmlns="http://www.w3.org/2000/svg">
<path d="M229 73C206.158 69.3404 180.146 67.3876 153.055 67.3876C128.263 67.3876 104.377 69.0207 83 72.0999C83.005 71.7703 83.0098 71.4407 83.0244 71.1112C83.5911 51.9817 91.5888 33.8336 105.308 20.5458C119.027 7.25791 137.38 -0.115546 156.443 0.00136943C175.506 0.118285 193.767 7.7163 207.324 21.1714C220.88 34.6266 228.656 52.8714 228.99 72.0064C228.995 72.3409 229 72.6704 229 73Z" fill="#37EBBC"/>
<g opacity="0.1">
<path d="M165.925 1.65901C155.758 0.285769 145.416 1.06408 135.569 3.94349C125.723 6.8229 116.591 11.7392 108.766 18.3736C100.941 25.0081 94.5972 33.2128 90.146 42.4558C85.6948 51.6989 83.2354 61.7741 82.9272 72.0285C82.9123 72.3577 82.9076 72.6869 82.9027 73.0161C89.271 72.1023 95.8658 71.3193 102.636 70.6655C103.464 53.5821 110.247 37.3277 121.807 24.7228C133.368 12.1179 148.976 3.95799 165.925 1.65901Z" fill="white"/>
</g>
<ellipse cx="154" cy="106" rx="152" ry="39" fill="white"/>
<path d="M262.679 79.47C252.086 76.5946 241.342 74.3109 230.497 72.6295C212.72 69.8712 194.799 68.1467 176.824 67.4646C169.336 67.1582 161.71 67 154 67C147.889 67 141.828 67.0988 135.851 67.2965C118.316 67.8153 100.824 69.2953 83.4511 71.73C70.5911 73.5032 57.8558 76.0883 45.3213 79.47C16.0959 87.5609 0 98.4048 0 110C0 121.595 16.0959 132.439 45.3213 140.53C65.8745 146.224 91.2153 150.104 118.827 151.883C130.224 152.624 142.006 153 154 153C166.034 153 177.855 152.619 189.287 151.878C214.415 150.252 237.663 146.886 257.121 141.993C257.224 141.963 257.323 141.939 257.427 141.914C258.74 141.588 260.033 141.247 261.311 140.906C261.77 140.777 262.224 140.654 262.679 140.53C262.704 140.52 262.731 140.511 262.757 140.505C263.192 140.387 263.621 140.263 264.051 140.144C264.91 139.897 265.759 139.655 266.593 139.403C266.632 139.393 266.667 139.383 266.701 139.373C267.427 139.156 268.138 138.939 268.843 138.721C269.421 138.538 269.994 138.36 270.561 138.177C270.976 138.044 271.386 137.91 271.79 137.777C272.087 137.678 272.378 137.584 272.664 137.485C273.054 137.357 273.444 137.223 273.829 137.09C273.992 137.036 274.155 136.981 274.312 136.922C274.683 136.798 275.043 136.67 275.403 136.541C275.793 136.403 276.183 136.26 276.568 136.121C276.889 136.008 277.21 135.889 277.526 135.77C277.792 135.667 278.054 135.568 278.32 135.469C279.046 135.197 279.757 134.915 280.458 134.639C280.808 134.495 281.159 134.357 281.504 134.213C281.845 134.075 282.19 133.932 282.526 133.788C283.079 133.556 283.621 133.324 284.155 133.091C284.411 132.973 284.673 132.859 284.925 132.75C285.117 132.662 285.305 132.577 285.497 132.489C285.635 132.429 285.774 132.365 285.907 132.301C286.405 132.073 286.899 131.841 287.383 131.609C289.239 130.719 290.971 129.81 292.58 128.88C302.674 123.093 308 116.672 308 110C308 98.4048 291.904 87.5609 262.679 79.47ZM262.412 139.581C241.834 145.28 216.424 149.16 188.739 150.924C177.48 151.641 165.841 152.011 154 152.011C142.198 152.011 130.599 151.646 119.375 150.929C91.6448 149.17 66.1953 145.29 45.5879 139.581C16.8264 131.614 0.987179 121.111 0.987179 110C0.988787 109.018 1.1115 108.04 1.35255 107.089C3.86967 97.0654 19.3536 87.6845 45.5879 80.419C58.0276 77.0636 70.6653 74.4934 83.4265 72.7234C100.904 70.275 118.502 68.79 136.142 68.2752C142.026 68.0824 147.978 67.9869 154 67.9885C161.606 67.9885 169.128 68.1417 176.522 68.4383C194.603 69.1142 212.628 70.8471 230.506 73.6279C241.258 75.3018 251.91 77.569 262.412 80.419C288.642 87.6845 304.12 97.0605 306.643 107.079C306.888 108.033 307.012 109.015 307.013 110C307.013 121.111 291.174 131.614 262.412 139.581Z" fill="#3F3D56"/>
<path d="M306 112.1C306 118.453 300.619 124.465 291.01 129.834C289.412 130.728 287.692 131.603 285.864 132.459C285.385 132.683 284.896 132.906 284.402 133.125C284.27 133.187 284.133 133.249 283.997 133.306C283.806 133.392 283.62 133.472 283.43 133.558C283.18 133.663 282.921 133.772 282.667 133.886C282.139 134.11 281.602 134.333 281.054 134.557C280.722 134.695 280.38 134.833 280.043 134.966C279.701 135.104 279.354 135.237 279.007 135.375C278.313 135.641 277.609 135.912 276.89 136.174C276.626 136.269 276.367 136.364 276.103 136.464C275.791 136.578 275.473 136.692 275.155 136.802C274.774 136.935 274.388 137.073 274.002 137.206C273.645 137.329 273.288 137.453 272.922 137.572C272.765 137.629 272.604 137.681 272.443 137.734C272.062 137.862 271.675 137.99 271.289 138.114C271.006 138.209 270.717 138.3 270.424 138.395C270.023 138.523 269.618 138.652 269.207 138.78C268.645 138.956 268.078 139.127 267.506 139.303C266.807 139.512 266.103 139.722 265.385 139.931C265.351 139.94 265.317 139.95 265.278 139.959C264.452 140.202 263.611 140.435 262.761 140.673C262.335 140.787 261.91 140.906 261.48 141.02C261.453 141.026 261.427 141.034 261.402 141.044C260.952 141.163 260.502 141.282 260.048 141.405C258.787 141.729 257.502 142.057 256.202 142.375C256.099 142.399 256.001 142.423 255.899 142.451C237.155 147.008 214.16 150.327 188.711 151.93C177.562 152.629 165.94 153 154 153C141.952 153 130.232 152.624 118.996 151.911C51.9203 147.654 2 131.446 2 112.1C2.00528 110.922 2.18969 109.752 2.54721 108.628C2.57657 108.709 2.60592 108.785 2.64029 108.866C9.61446 126.691 59.11 141.096 123.331 144.611C133.17 145.153 143.36 145.433 153.79 145.433C164.264 145.433 174.493 145.148 184.371 144.606C248.538 141.077 297.985 126.667 304.934 108.856C305.052 108.571 305.154 108.285 305.242 108C305.738 109.313 305.994 110.701 306 112.1Z" fill="#3F3D56"/>
<path d="M45 105C37.2436 105 29 103.423 29 100.5C29 97.5771 37.2436 96 45 96C52.7564 96 61 97.5771 61 100.5C61 103.423 52.7564 105 45 105ZM45 96.8809C36.1202 96.8809 29.9321 98.7883 29.9321 100.5C29.9321 102.212 36.1203 104.119 45 104.119C53.8797 104.119 60.0679 102.212 60.0679 100.5C60.0679 98.7883 53.8797 96.8809 45 96.8809Z" fill="#3F3D56"/>
<path d="M79.9999 130C71.7588 130 63 128.072 63 124.5C63 120.928 71.7588 119 79.9999 119C88.2412 119 97 120.928 97 124.5C97 128.072 88.2412 130 79.9999 130ZM79.9999 120.077C70.5653 120.077 63.9904 122.408 63.9904 124.5C63.9904 126.592 70.5653 128.923 79.9999 128.923C89.4346 128.923 96.0096 126.592 96.0096 124.5C96.0096 122.408 89.4347 120.077 79.9999 120.077Z" fill="#3F3D56"/>
<path d="M261 105C252.759 105 244 103.423 244 100.5C244 97.5771 252.759 96 261 96C269.241 96 278 97.5771 278 100.5C278 103.423 269.241 105 261 105ZM261 96.8809C251.565 96.8809 244.99 98.7883 244.99 100.5C244.99 102.212 251.565 104.119 261 104.119C270.435 104.119 277.01 102.212 277.01 100.5C277.01 98.7883 270.435 96.8809 261 96.8809Z" fill="#3F3D56"/>
<path d="M227 130C218.759 130 210 128.072 210 124.5C210 120.928 218.759 119 227 119C235.241 119 244 120.928 244 124.5C244 128.072 235.241 130 227 130ZM227 120.077C217.565 120.077 210.99 122.408 210.99 124.5C210.99 126.592 217.565 128.923 227 128.923C236.435 128.923 243.01 126.592 243.01 124.5C243.01 122.408 236.435 120.077 227 120.077Z" fill="#3F3D56"/>
<path d="M153 140C144.759 140 136 138.248 136 135C136 131.752 144.759 130 153 130C161.241 130 170 131.752 170 135C170 138.248 161.241 140 153 140ZM153 130.979C143.565 130.979 136.99 133.098 136.99 135C136.99 136.902 143.565 139.021 153 139.021C162.435 139.021 169.01 136.902 169.01 135C169.01 133.098 162.435 130.979 153 130.979Z" fill="#3F3D56"/>
<path d="M153.5 262C153.367 262 153.24 261.896 153.146 261.712C153.053 261.527 153 261.277 153 261.016V202.984C153 202.723 153.053 202.473 153.146 202.288C153.24 202.104 153.367 202 153.5 202C153.633 202 153.76 202.104 153.854 202.288C153.947 202.473 154 202.723 154 202.984V261.016C154 261.277 153.947 261.527 153.854 261.712C153.76 261.896 153.633 262 153.5 262Z" fill="white"/>
<path d="M165.5 243C177.374 243 187 233.822 187 222.5C187 211.178 177.374 202 165.5 202C153.626 202 144 211.178 144 222.5C144 233.822 153.626 243 165.5 243Z" fill="#2F2E41"/>
<path d="M157.794 235.996L147.749 241.027L150.556 246.634L160.602 241.603L157.794 235.996Z" fill="#2F2E41"/>
<path d="M151.881 246.065C152.477 245.161 151.006 243.141 148.597 241.553C146.187 239.964 143.751 239.409 143.156 240.312C142.56 241.216 144.03 243.236 146.439 244.825C148.849 246.413 151.285 246.969 151.881 246.065Z" fill="#2F2E41"/>
<path d="M173.493 235.996L170.685 241.603L180.73 246.634L183.538 241.027L173.493 235.996Z" fill="#2F2E41"/>
<path d="M184.847 244.825C187.257 243.236 188.727 241.216 188.131 240.312C187.535 239.408 185.099 239.964 182.69 241.553C180.28 243.141 178.81 245.161 179.406 246.065C180.002 246.969 182.438 246.413 184.847 244.825Z" fill="#2F2E41"/>
<path d="M164.5 225C168.642 225 172 221.642 172 217.5C172 213.358 168.642 210 164.5 210C160.358 210 157 213.358 157 217.5C157 221.642 160.358 225 164.5 225Z" fill="white"/>
<path d="M165.914 216.034C166.829 215.119 166.824 213.631 165.903 212.71C164.982 211.789 163.494 211.784 162.579 212.699C161.665 213.613 161.67 215.101 162.591 216.022C163.512 216.943 165 216.948 165.914 216.034Z" fill="#3F3D56"/>
<path d="M180.99 200.098C181.294 192.125 174.83 185.372 166.552 185.015C158.274 184.657 151.316 190.831 151.012 198.804C150.707 206.777 156.461 208.588 164.74 208.946C173.018 209.303 180.685 208.071 180.99 200.098Z" fill="#6C63FF"/>
<path d="M193.824 233.243C195.182 232.078 193.273 227.627 189.56 223.302C185.847 218.977 181.737 216.416 180.379 217.582C179.022 218.747 180.931 223.198 184.644 227.523C188.356 231.848 192.467 234.409 193.824 233.243Z" fill="#2F2E41"/>
<path d="M146.701 227.523C150.414 223.198 152.323 218.747 150.965 217.582C149.608 216.416 145.497 218.977 141.784 223.302C138.072 227.627 136.163 232.078 137.52 233.243C138.878 234.409 142.988 231.848 146.701 227.523Z" fill="#2F2E41"/>
<path d="M171.919 230.453C172.157 231.68 171.866 232.946 171.111 233.972C170.356 234.999 169.198 235.7 167.892 235.924C166.587 236.147 165.24 235.874 164.149 235.164C163.058 234.454 162.311 233.366 162.074 232.138L162.072 232.129C161.58 229.572 163.682 228.668 166.401 228.205C169.12 227.742 171.427 227.896 171.919 230.453Z" fill="white"/>
<path d="M130.5 245C130.102 245 129.721 244.896 129.439 244.712C129.158 244.527 129 244.277 129 244.016V185.984C129 185.723 129.158 185.473 129.439 185.288C129.721 185.104 130.102 185 130.5 185C130.898 185 131.279 185.104 131.561 185.288C131.842 185.473 132 185.723 132 185.984V244.016C132 244.277 131.842 244.527 131.561 244.712C131.279 244.896 130.898 245 130.5 245Z" fill="white"/>
<path d="M115.5 297C115.102 297 114.721 296.895 114.439 296.707C114.158 296.52 114 296.265 114 296V253C114 252.735 114.158 252.48 114.439 252.293C114.721 252.105 115.102 252 115.5 252C115.898 252 116.279 252.105 116.561 252.293C116.842 252.48 117 252.735 117 253V296C117 296.265 116.842 296.52 116.561 296.707C116.279 296.895 115.898 297 115.5 297Z" fill="white"/>
<path d="M139.5 302C139.367 302 139.24 301.903 139.146 301.73C139.053 301.557 139 301.322 139 301.077V278.923C139 278.678 139.053 278.443 139.146 278.27C139.24 278.097 139.367 278 139.5 278C139.633 278 139.76 278.097 139.854 278.27C139.947 278.443 140 278.678 140 278.923V301.077C140 301.322 139.947 301.557 139.854 301.73C139.76 301.903 139.633 302 139.5 302Z" fill="white"/>
<path d="M160 183C159.735 183 159.48 182.895 159.293 182.707C159.105 182.52 159 182.265 159 182V158C159 157.735 159.105 157.48 159.293 157.293C159.48 157.105 159.735 157 160 157C160.265 157 160.52 157.105 160.707 157.293C160.895 157.48 161 157.735 161 158V182C161 182.265 160.895 182.52 160.707 182.707C160.52 182.895 160.265 183 160 183Z" fill="white"/>
<path d="M110.5 192C110.102 192 109.721 191.903 109.439 191.73C109.158 191.557 109 191.322 109 191.077V168.923C109 168.678 109.158 168.443 109.439 168.27C109.721 168.097 110.102 168 110.5 168C110.898 168 111.279 168.097 111.561 168.27C111.842 168.443 112 168.678 112 168.923V191.077C112 191.322 111.842 191.557 111.561 191.73C111.279 191.903 110.898 192 110.5 192Z" fill="white"/>
<path d="M196 195C195.735 195 195.48 194.899 195.293 194.718C195.105 194.538 195 194.293 195 194.038V170.962C195 170.707 195.105 170.462 195.293 170.282C195.48 170.101 195.735 170 196 170C196.265 170 196.52 170.101 196.707 170.282C196.895 170.462 197 170.707 197 170.962V194.038C197 194.293 196.895 194.538 196.707 194.718C196.52 194.899 196.265 195 196 195Z" fill="white"/>
<path d="M194 268C193.735 268 193.48 267.898 193.293 267.717C193.105 267.535 193 267.289 193 267.032V238.968C193 238.711 193.105 238.465 193.293 238.283C193.48 238.102 193.735 238 194 238C194.265 238 194.52 238.102 194.707 238.283C194.895 238.465 195 238.711 195 238.968V267.032C195 267.289 194.895 267.535 194.707 267.717C194.52 267.898 194.265 268 194 268Z" fill="white"/>
<path d="M175 294C174.735 294 174.48 293.899 174.293 293.72C174.105 293.541 174 293.298 174 293.044V251.956C174 251.702 174.105 251.459 174.293 251.28C174.48 251.101 174.735 251 175 251C175.265 251 175.52 251.101 175.707 251.28C175.895 251.459 176 251.702 176 251.956V293.044C176 293.298 175.895 293.541 175.707 293.72C175.52 293.899 175.265 294 175 294Z" fill="white"/>
<path d="M178.5 222C178.102 222 177.721 221.896 177.439 221.712C177.158 221.527 177 221.277 177 221.016V162.984C177 162.723 177.158 162.473 177.439 162.288C177.721 162.104 178.102 162 178.5 162C178.898 162 179.279 162.104 179.561 162.288C179.842 162.473 180 162.723 180 162.984V221.016C180 221.277 179.842 221.527 179.561 221.712C179.279 221.896 178.898 222 178.5 222Z" fill="white"/>
<path d="M257.112 317.157C258.518 315.98 256.618 311.394 252.867 306.913C249.116 302.433 244.935 299.756 243.528 300.934C242.122 302.111 244.023 306.698 247.774 311.178C251.525 315.658 255.706 318.335 257.112 317.157Z" fill="#2F2E41"/>
<path d="M247.888 312.063C251.584 300.977 245.592 288.994 234.506 285.298C223.42 281.603 211.437 287.594 207.741 298.68C204.046 309.767 210.037 321.75 221.124 325.445C232.21 329.141 244.193 323.149 247.888 312.063Z" fill="#2F2E41"/>
<path d="M237.218 322H230.218V333H237.218V322Z" fill="#2F2E41"/>
<path d="M223.218 322H218.218V333H223.218V322Z" fill="#2F2E41"/>
<path d="M221.516 278.601C223.4 270.928 231.714 266.413 240.086 268.516C248.459 270.619 253.719 278.543 251.836 286.216C249.952 293.888 243.703 293.913 235.331 291.81C226.958 289.707 219.633 286.273 221.516 278.601Z" fill="#CCCCCC"/>
<path d="M213.541 300.087C214.327 298.43 210.685 295.057 205.406 292.553C200.126 290.049 195.209 289.363 194.423 291.02C193.637 292.677 197.28 296.051 202.559 298.554C207.838 301.058 212.755 301.745 213.541 300.087Z" fill="#2F2E41"/>
<path d="M225.218 307C229.084 307 232.218 303.866 232.218 300C232.218 296.134 229.084 293 225.218 293C221.352 293 218.218 296.134 218.218 300C218.218 303.866 221.352 307 225.218 307Z" fill="white"/>
<path d="M221.218 300C222.323 300 223.218 299.105 223.218 298C223.218 296.895 222.323 296 221.218 296C220.113 296 219.218 296.895 219.218 298C219.218 299.105 220.113 300 221.218 300Z" fill="#3F3D56"/>
<path d="M225.218 318C226.875 318 228.218 316.657 228.218 315C228.218 313.343 226.875 312 225.218 312C223.561 312 222.218 313.343 222.218 315C222.218 316.657 223.561 318 225.218 318Z" fill="white"/>
</svg>
