<svg width="422" height="397" viewBox="0 0 422 397" fill="none" xmlns="http://www.w3.org/2000/svg">
<circle cx="18.3727" cy="137.376" r="2" transform="rotate(-12.9757 18.3727 137.376)" fill="white"/>
<circle cx="300" cy="179" r="2" fill="white"/>
<circle cx="354" cy="32" r="2" fill="white"/>
<circle cx="227" cy="333" r="2" fill="white"/>
<circle cx="179.551" cy="275.717" r="2" transform="rotate(-12.9757 179.551 275.717)" fill="white" fill-opacity="0.4"/>
<circle cx="245" cy="193" r="2" fill="white" fill-opacity="0.4"/>
<circle cx="304" cy="104" r="2" fill="white" fill-opacity="0.4"/>
<circle cx="300" cy="77" r="2" fill="white" fill-opacity="0.4"/>
<circle cx="300" cy="281" r="2" fill="white" fill-opacity="0.4"/>
<circle cx="371" cy="376" r="2" fill="white" fill-opacity="0.4"/>
<circle cx="354" cy="236" r="2" fill="white" fill-opacity="0.4"/>
<circle cx="227" cy="129" r="2" fill="white" fill-opacity="0.4"/>
<circle cx="111" cy="306" r="2" fill="white" fill-opacity="0.4"/>
<circle cx="202.454" cy="375.113" r="2" transform="rotate(-12.9757 202.454 375.113)" fill="white" fill-opacity="0.7"/>
<circle cx="418.875" cy="281.118" r="2" transform="rotate(-12.9757 418.875 281.118)" fill="white" fill-opacity="0.7"/>
<circle cx="33" cy="197" r="2" fill="white" fill-opacity="0.7"/>
<circle cx="245" cy="91" r="2" fill="white" fill-opacity="0.7"/>
<circle cx="245" cy="295" r="2" fill="white" fill-opacity="0.7"/>
<circle cx="216" cy="308" r="2" fill="white" fill-opacity="0.7"/>
<circle cx="48" cy="293" r="2" fill="white" fill-opacity="0.7"/>
<circle cx="48" cy="395" r="2" fill="white" fill-opacity="0.7"/>
<circle cx="304" cy="2" r="2" fill="white" fill-opacity="0.7"/>
<circle cx="371" cy="172" r="2" fill="white" fill-opacity="0.7"/>
<circle cx="354" cy="134" r="2" fill="white" fill-opacity="0.7"/>
<circle cx="227" cy="231" r="2" fill="white" fill-opacity="0.7"/>
<circle cx="111" cy="204" r="2" fill="white" fill-opacity="0.7"/>
<circle cx="110" cy="28" r="2" fill="white" fill-opacity="0.7"/>
<circle cx="110" cy="130" r="2" fill="white"/>
<circle cx="159" cy="164" r="2" fill="white" fill-opacity="0.6"/>
<circle cx="373.069" cy="82.3269" r="2" transform="rotate(-12.9757 373.069 82.3269)" fill="white" fill-opacity="0.6"/>
<circle cx="395.972" cy="181.722" r="2" transform="rotate(-12.9757 395.972 181.722)" fill="white" fill-opacity="0.6"/>
<circle cx="216" cy="206" r="2" fill="white" fill-opacity="0.6"/>
<circle cx="48" cy="191" r="2" fill="white" fill-opacity="0.6"/>
<circle cx="304" cy="206" r="2" fill="white" fill-opacity="0.6"/>
<circle cx="371" cy="274" r="2" fill="white" fill-opacity="0.6"/>
<circle cx="111" cy="102" r="2" fill="white" fill-opacity="0.6"/>
<circle cx="110" cy="232" r="2" fill="white" fill-opacity="0.6"/>
<circle cx="200" cy="44" r="2" fill="white" fill-opacity="0.6"/>
<circle cx="200" cy="146" r="2" fill="white" fill-opacity="0.6"/>
<circle cx="200" cy="248" r="2" fill="white" fill-opacity="0.6"/>
</svg>
